# xmcd
#
# Track frame offsets:
# 150
# 15040
# 35612
# 56616
# 78112
# 100933
# 114660
# 131718
# 153061
# 173037
# 192369
# 209160
# 232043
# 248175
#
# Disc length: 3522 seconds
#
#
# Revision: 0
# Processed by: cddbd v1.5.1PL2 Copyright (c) Steve Scherf et al.
# Submitted via: FreeRIP 2.941 
#
DISCID=b30dc00e
DTITLE=The Front Street Blues Band - Full Contact Blues
DYEAR=2006
DGENRE=Blues
TTITLE0=Pay Some Attention
TTITLE1=Help Me
TTITLE2=Cross Eyed Cat
TTITLE3=Full Contact Blues
TTITLE4=5 Long Years
TTITLE5=She's Tough
TTITLE6=Jump Jive and Wail
TTITLE7=Somthing About You
TTITLE8=$5 in my Shoe
TTITLE9=Since my Baby Left me
TTITLE10=I'm Ready
TTITLE11=Heartbreaker
TTITLE12=Wait on Tme
TTITLE13=Caledonia
EXTD=As heard on\nBluesfestRadio.com
EXTT0=
EXTT1=
EXTT2=
EXTT3=
EXTT4=
EXTT5=
EXTT6=
EXTT7=
EXTT8=
EXTT9=
EXTT10=
EXTT11=
EXTT12=
EXTT13=
PLAYORDER=
